<svg xmlns="http://www.w3.org/2000/svg" xmlns:xlink="http://www.w3.org/1999/xlink" id="svg" version="1.1" width="400" height="409.04761904761904" viewBox="0, 0, 400,409.04761904761904" style="&#10;"><g id="svgg"><path id="path0" d="M142.800 143.266 C 142.030 143.441,137.080 143.583,131.800 143.580 C 126.520 143.578,121.300 143.599,120.200 143.626 C 119.100 143.654,116.760 143.642,115.000 143.601 C 113.204 143.560,109.518 143.909,106.600 144.398 C 103.740 144.877,99.510 145.412,97.200 145.585 C 94.890 145.759,92.235 146.192,91.299 146.549 C 90.364 146.905,87.574 147.371,85.099 147.584 C 81.034 147.935,80.292 148.128,77.399 149.586 C 75.639 150.474,73.735 151.200,73.169 151.200 C 72.602 151.200,70.173 151.755,67.769 152.434 C 62.345 153.967,59.787 153.912,58.029 152.227 C 56.591 150.850,56.975 150.733,47.400 155.444 C 42.510 157.849,38.408 159.571,35.898 160.272 L 31.995 161.362 33.311 162.781 C 36.286 165.991,36.290 165.999,35.402 166.648 C 34.806 167.083,34.633 167.636,34.691 168.912 C 34.818 171.709,34.535 172.400,33.261 172.400 C 32.352 172.400,32.143 172.573,32.168 173.300 C 32.203 174.283,31.383 174.370,25.834 173.970 L 23.469 173.800 23.434 175.369 C 23.394 177.198,22.191 177.802,19.462 177.364 C 18.112 177.147,17.766 177.270,16.631 178.370 L 15.338 179.623 14.306 178.812 C 12.841 177.660,11.424 177.709,11.763 178.900 C 12.756 182.387,12.344 183.429,10.137 183.015 C 6.028 182.244,8.634 189.302,14.747 195.501 C 15.344 196.105,16.836 197.860,18.064 199.400 C 20.401 202.331,24.834 206.746,26.197 207.499 C 28.508 208.777,23.760 209.098,18.200 208.039 C 13.433 207.131,9.600 206.945,9.600 207.620 C 9.600 207.851,9.885 208.591,10.234 209.266 C 11.682 212.065,8.850 211.560,5.400 208.404 C 2.054 205.342,1.905 205.260,2.209 206.630 C 2.736 209.005,4.815 212.717,6.219 213.788 C 7.150 214.498,7.562 215.094,7.426 215.533 C 7.011 216.867,8.660 218.000,11.016 218.000 C 12.125 218.000,12.432 217.860,12.267 217.429 C 11.951 216.607,12.964 215.925,14.084 216.207 C 15.404 216.538,20.581 220.719,20.684 221.537 C 20.730 221.901,20.820 222.535,20.884 222.944 C 21.069 224.131,19.309 225.107,15.000 226.204 C 5.499 228.624,9.176 230.455,20.532 228.958 C 28.332 227.931,32.338 228.614,35.673 231.542 C 37.911 233.507,39.462 233.207,43.717 229.985 C 47.538 227.092,49.928 226.696,55.819 227.981 C 61.711 229.266,61.772 229.258,65.472 226.665 C 69.945 223.531,73.430 222.000,76.091 222.000 C 77.251 222.000,79.109 221.654,80.220 221.232 C 83.616 219.941,87.026 219.478,89.235 220.008 C 90.866 220.400,91.303 220.373,92.071 219.836 C 93.222 219.029,97.128 218.992,98.989 219.770 C 100.177 220.266,100.415 220.264,100.841 219.751 C 101.556 218.889,105.419 219.146,105.353 220.051 C 105.316 220.550,105.812 220.762,107.480 220.958 C 109.936 221.247,110.400 221.089,110.400 219.964 C 110.400 218.962,110.337 218.976,117.034 218.428 C 121.039 218.100,123.211 218.089,124.545 218.388 C 126.228 218.765,126.544 218.717,127.616 217.925 C 129.210 216.746,130.836 216.858,134.000 218.363 C 136.805 219.697,138.000 219.908,138.000 219.070 C 138.000 218.778,138.439 218.127,138.976 217.622 L 139.953 216.705 141.030 217.552 C 141.623 218.019,142.545 218.400,143.080 218.400 C 143.615 218.400,144.419 218.596,144.867 218.836 C 145.544 219.198,145.874 219.087,146.824 218.177 L 147.967 217.082 155.283 216.994 C 162.966 216.901,164.983 216.543,164.527 215.355 C 164.373 214.954,164.531 214.493,164.920 214.209 C 165.307 213.926,165.535 213.263,165.485 212.568 C 165.381 211.144,166.403 210.873,169.063 211.618 C 170.543 212.032,171.142 212.002,172.989 211.421 C 174.863 210.832,175.662 210.796,178.684 211.167 C 183.662 211.777,186.455 211.717,187.511 210.977 C 188.809 210.068,188.602 209.600,186.900 209.598 C 186.075 209.598,182.790 209.162,179.600 208.631 C 171.246 207.240,165.470 206.591,165.324 207.029 C 165.252 207.246,163.344 207.304,160.720 207.168 C 155.382 206.892,150.587 207.239,152.695 207.748 C 154.205 208.113,154.718 208.703,153.825 209.046 C 153.481 209.178,153.200 209.626,153.200 210.043 C 153.200 210.722,152.874 210.800,150.045 210.800 L 146.889 210.800 146.625 209.393 C 146.480 208.619,146.463 207.822,146.587 207.621 C 146.711 207.420,146.630 207.142,146.407 207.004 C 146.183 206.866,146.000 207.014,146.000 207.334 C 146.000 208.607,143.707 208.761,143.528 207.500 C 143.412 206.686,143.122 206.578,140.494 206.374 C 137.188 206.117,136.039 205.469,137.741 204.823 C 140.508 203.770,141.969 202.000,140.070 202.000 C 138.329 202.000,137.165 200.523,137.462 198.693 C 137.796 196.637,138.418 196.243,140.876 196.534 C 143.222 196.812,144.116 197.382,142.840 197.787 C 141.108 198.337,141.908 199.155,144.299 199.280 C 146.557 199.398,146.610 199.428,147.309 201.000 C 148.646 204.004,148.930 204.284,149.972 203.625 C 150.453 203.321,150.390 202.972,149.580 201.444 C 148.141 198.733,149.025 198.049,151.094 200.272 C 153.142 202.474,154.651 203.161,158.513 203.651 C 160.321 203.880,162.838 204.292,164.107 204.566 C 166.638 205.114,166.828 205.025,167.477 203.000 C 167.958 201.499,169.506 201.259,172.999 202.142 C 176.901 203.128,177.381 203.189,178.603 202.863 C 180.313 202.405,179.340 202.024,175.311 201.574 C 171.182 201.113,169.200 200.541,169.200 199.812 C 169.200 198.448,172.743 198.456,175.078 199.825 L 176.826 200.849 178.048 199.821 L 179.269 198.794 180.834 201.097 C 181.694 202.364,182.399 203.648,182.399 203.950 C 182.400 204.336,182.728 204.435,183.500 204.283 C 185.083 203.971,186.876 204.409,187.080 205.157 C 187.456 206.531,189.070 207.116,194.816 207.957 C 202.055 209.017,202.965 209.018,203.945 207.967 C 205.628 206.161,206.589 207.028,206.686 210.437 C 206.790 214.114,207.281 215.600,208.390 215.600 C 209.023 215.600,209.200 215.338,209.200 214.400 C 209.200 213.288,209.310 213.197,210.700 213.156 L 212.200 213.112 210.422 212.764 C 208.480 212.383,207.342 211.540,207.791 210.815 C 207.971 210.523,208.539 210.454,209.338 210.627 L 210.600 210.901 209.620 210.102 C 208.660 209.320,208.655 209.281,209.347 208.225 C 210.221 206.891,209.832 206.316,207.605 205.649 C 206.338 205.269,206.000 204.975,206.000 204.251 C 206.000 202.756,206.469 202.710,207.868 204.066 C 208.594 204.769,209.310 205.224,209.458 205.075 C 209.858 204.675,208.404 203.219,206.773 202.387 C 204.670 201.313,204.276 200.710,204.853 199.443 C 205.475 198.078,205.335 197.978,201.911 197.330 C 198.153 196.620,197.390 195.940,199.250 194.963 C 202.683 193.158,213.820 195.607,212.024 197.771 C 211.517 198.382,212.226 198.800,213.771 198.800 C 214.711 198.800,216.000 199.917,216.000 200.731 C 216.000 201.333,216.904 201.336,217.503 200.737 C 217.854 200.386,218.576 200.574,220.483 201.511 C 221.867 202.191,224.310 203.045,225.911 203.409 C 227.701 203.815,229.576 204.576,230.778 205.385 C 232.161 206.316,233.038 206.644,233.769 206.504 C 234.991 206.270,236.000 206.983,236.000 208.080 C 236.000 208.728,235.745 208.849,234.500 208.792 C 232.095 208.681,231.936 208.740,232.072 209.690 C 232.310 211.344,235.241 212.014,239.300 211.343 C 241.621 210.960,241.255 210.000,238.787 210.000 C 236.489 210.000,235.849 209.271,237.016 207.983 C 237.844 207.068,237.900 207.150,235.691 206.036 L 233.982 205.175 234.691 204.200 C 235.598 202.953,236.425 202.950,237.588 204.188 C 238.099 204.731,238.670 205.080,238.858 204.964 C 239.445 204.601,239.234 204.065,238.400 203.800 C 236.918 203.330,237.445 202.425,239.050 202.686 C 240.153 202.865,240.589 202.763,240.870 202.260 C 241.364 201.378,242.120 201.427,243.000 202.400 C 243.975 203.477,244.741 203.407,245.200 202.200 C 245.409 201.650,245.810 201.195,246.090 201.188 C 246.371 201.181,246.261 200.979,245.847 200.738 C 245.376 200.464,244.142 200.398,242.557 200.560 C 240.093 200.813,237.982 200.579,238.017 200.057 C 238.077 199.147,240.978 197.977,242.061 198.425 C 242.928 198.785,243.634 198.786,245.047 198.430 C 246.065 198.174,246.920 198.017,246.949 198.082 C 246.977 198.147,247.342 198.830,247.760 199.600 C 248.178 200.370,248.768 201.477,249.070 202.061 C 249.652 203.184,251.837 203.292,253.772 202.293 C 254.906 201.708,253.555 200.800,251.550 200.800 C 248.668 200.800,246.698 199.230,249.131 198.872 C 250.317 198.698,250.229 197.744,249.000 197.436 C 248.450 197.298,248.000 197.008,248.000 196.792 C 248.000 195.992,250.248 196.459,251.705 197.561 C 252.952 198.506,253.499 198.670,254.905 198.522 C 258.885 198.104,261.030 200.029,258.100 201.390 C 256.086 202.325,255.992 202.765,257.609 203.685 C 260.038 205.067,259.709 206.461,257.256 205.183 C 255.114 204.066,254.131 204.406,256.100 205.582 C 258.653 207.108,258.045 209.600,255.120 209.600 C 251.809 209.600,253.909 211.587,257.674 212.017 C 259.283 212.200,262.670 212.623,265.200 212.955 C 272.344 213.894,283.365 214.862,285.275 214.719 L 287.000 214.590 285.400 214.097 C 284.520 213.826,282.303 213.603,280.474 213.602 C 274.231 213.598,272.602 212.319,274.026 208.539 C 274.667 206.838,276.989 206.910,276.560 208.617 C 276.164 210.194,276.872 210.855,279.126 211.011 C 282.181 211.222,282.287 209.831,279.239 209.533 C 277.940 209.406,276.741 208.326,277.289 207.778 C 278.030 207.037,287.660 209.908,294.115 212.794 C 295.812 213.553,296.270 213.601,298.147 213.211 C 302.839 212.237,316.279 216.281,314.445 218.115 C 313.681 218.879,313.935 219.124,316.162 219.772 C 320.735 221.101,322.496 220.433,319.178 218.627 C 315.604 216.682,316.784 215.698,321.045 217.070 C 323.294 217.794,324.812 217.578,324.036 216.643 C 323.786 216.343,323.018 215.984,322.329 215.846 C 321.005 215.581,320.000 214.936,320.000 214.351 C 320.000 213.753,322.232 213.958,327.487 215.041 C 330.999 215.765,333.372 216.035,335.270 215.928 C 336.771 215.843,338.000 215.937,338.000 216.137 C 338.000 216.336,338.918 217.389,340.040 218.476 C 341.669 220.055,342.026 220.628,341.814 221.326 C 341.322 222.946,341.397 223.288,342.320 223.639 C 342.910 223.864,343.153 223.848,342.997 223.595 C 342.504 222.798,343.262 222.332,343.985 222.986 C 344.822 223.744,347.200 224.493,347.200 223.999 C 347.200 223.809,346.830 223.536,346.377 223.393 C 344.877 222.917,345.622 221.813,347.536 221.675 C 350.775 221.442,352.756 224.221,349.800 224.850 C 349.140 224.990,348.870 225.128,349.200 225.157 C 350.515 225.269,353.984 227.233,357.400 229.801 C 359.380 231.289,361.720 232.822,362.600 233.209 C 365.274 234.383,368.797 239.014,368.801 241.360 C 368.803 242.060,368.935 241.983,369.596 240.900 C 370.511 239.399,370.999 239.277,371.600 240.400 C 371.865 240.895,372.442 241.203,373.114 241.207 C 373.750 241.211,374.599 241.634,375.162 242.227 C 375.690 242.785,376.747 243.501,377.509 243.820 L 378.894 244.399 378.634 247.499 L 378.373 250.600 379.625 249.100 C 380.314 248.275,381.130 247.600,381.439 247.600 C 382.184 247.600,382.157 246.946,381.400 246.655 C 380.425 246.281,380.713 245.266,381.980 244.610 C 383.682 243.730,385.809 243.829,386.742 244.830 C 387.279 245.406,387.603 245.519,387.801 245.198 C 387.961 244.940,387.626 244.253,387.044 243.646 C 386.470 243.046,386.000 242.372,386.000 242.147 C 386.000 241.698,393.138 238.190,394.900 237.774 C 396.704 237.347,395.628 235.371,393.167 234.590 C 392.745 234.456,392.400 234.116,392.400 233.835 C 392.400 233.017,390.981 231.956,390.258 232.233 C 389.453 232.542,389.447 232.735,390.183 234.498 C 391.722 238.180,384.259 238.304,379.419 234.677 C 378.346 233.874,382.879 229.200,384.730 229.200 C 387.754 229.200,390.101 228.033,389.817 226.672 C 389.306 224.226,389.366 223.011,390.000 222.997 C 390.330 222.990,391.020 222.835,391.534 222.654 L 392.468 222.324 391.560 221.357 C 390.946 220.703,390.519 220.521,390.245 220.795 C 388.348 222.692,382.259 219.166,378.805 214.170 C 377.334 212.041,376.440 211.143,375.477 210.826 C 374.753 210.587,373.270 209.481,372.181 208.368 C 367.973 204.071,363.316 201.387,352.500 197.027 C 348.925 195.586,345.027 193.858,343.837 193.186 C 341.166 191.679,339.370 191.142,338.079 191.466 C 337.184 191.691,337.275 191.785,339.045 192.455 C 340.120 192.862,341.225 193.500,341.500 193.874 C 342.196 194.819,342.138 195.738,341.400 195.455 C 340.597 195.147,340.656 195.843,341.612 197.950 C 342.548 200.013,346.173 203.651,350.619 206.988 C 352.368 208.302,354.590 210.057,355.556 210.888 C 356.533 211.729,357.739 212.400,358.272 212.400 C 359.542 212.400,361.854 213.607,363.969 215.374 C 364.911 216.161,366.100 216.910,366.610 217.038 C 367.633 217.295,371.200 221.573,371.200 222.543 C 371.200 223.308,370.539 223.749,370.204 223.207 C 369.904 222.721,368.400 222.658,368.400 223.130 C 368.400 223.312,369.740 224.309,371.377 225.347 C 374.473 227.307,376.000 229.150,376.000 230.924 C 376.000 233.156,374.304 232.423,366.433 226.789 C 363.167 224.450,361.643 223.587,361.040 223.732 C 360.578 223.843,359.210 224.217,358.000 224.562 C 353.426 225.868,351.441 225.121,354.053 223.077 C 355.649 221.829,355.531 221.673,351.092 219.165 C 349.061 218.018,346.827 216.656,346.127 216.139 C 345.081 215.368,344.361 215.200,342.100 215.200 C 338.345 215.200,335.631 214.659,328.600 212.511 C 318.596 209.455,311.063 207.907,309.364 208.558 C 309.034 208.685,305.576 208.142,301.682 207.351 C 287.210 204.411,278.347 203.200,271.309 203.200 C 267.756 203.200,266.519 203.061,266.034 202.606 C 265.685 202.280,264.860 201.575,264.200 201.040 L 263.000 200.067 264.141 199.780 C 264.812 199.611,267.453 199.848,270.541 200.354 C 276.869 201.390,277.063 201.399,276.416 200.620 C 276.151 200.300,275.094 199.918,274.067 199.769 C 271.446 199.390,270.954 198.914,272.017 197.782 C 273.009 196.726,272.848 196.589,270.200 196.233 C 266.167 195.691,265.638 195.249,266.635 193.250 L 267.270 191.978 268.535 192.748 C 269.231 193.171,271.194 193.802,272.898 194.150 C 276.821 194.950,279.166 196.126,279.710 197.567 C 280.099 198.599,280.249 198.659,282.017 198.489 C 284.371 198.263,286.336 198.893,288.554 200.585 C 290.143 201.798,290.305 201.844,290.716 201.186 C 290.960 200.795,291.799 200.264,292.580 200.007 C 295.292 199.112,294.014 198.493,287.618 197.603 C 284.213 197.129,281.200 195.969,281.200 195.132 C 281.200 194.686,284.898 194.808,289.800 195.415 C 291.611 195.640,291.709 195.613,290.839 195.132 C 289.356 194.311,288.844 193.246,289.700 192.759 C 290.085 192.540,290.400 192.009,290.400 191.580 C 290.400 190.870,291.583 190.402,291.613 191.100 C 291.662 192.256,292.800 192.924,293.556 192.240 C 294.287 191.578,294.402 191.585,295.953 192.376 C 296.849 192.833,298.824 193.468,300.341 193.788 C 303.612 194.476,306.000 195.763,306.000 196.840 C 306.000 197.258,306.264 197.600,306.587 197.600 C 306.948 197.600,307.085 197.366,306.942 196.993 C 306.566 196.013,307.597 194.000,308.475 194.000 C 309.972 194.000,311.047 194.830,310.278 195.392 C 309.713 195.806,310.216 196.082,313.606 197.222 C 317.585 198.559,317.600 198.570,317.600 199.882 C 317.600 201.341,317.873 201.527,318.585 200.553 C 318.937 200.072,319.385 199.977,320.329 200.184 C 321.788 200.505,321.948 200.985,320.800 201.600 C 320.360 201.835,320.000 202.202,320.000 202.414 C 320.000 203.109,322.289 202.819,323.256 202.001 L 324.200 201.202 323.100 200.220 C 321.477 198.771,321.668 198.269,323.700 198.642 C 326.786 199.210,327.718 199.096,327.793 198.141 C 328.047 194.912,330.800 196.105,330.800 199.444 C 330.800 200.941,330.920 201.200,331.610 201.200 C 332.189 201.200,332.488 201.540,332.659 202.394 C 332.958 203.891,333.600 203.567,333.600 201.919 L 333.600 200.685 336.573 200.909 C 339.836 201.156,340.437 200.525,338.769 198.600 C 338.388 198.160,337.580 196.900,336.974 195.800 C 335.061 192.328,335.093 192.362,333.915 192.619 C 333.319 192.750,332.516 192.681,332.132 192.466 C 331.625 192.182,331.313 192.240,330.993 192.677 C 330.618 193.190,330.307 193.204,328.872 192.774 C 326.777 192.147,326.105 191.437,326.806 190.592 C 328.016 189.135,324.298 186.978,319.499 186.352 C 317.684 186.116,315.152 185.459,313.870 184.893 C 311.706 183.937,311.402 183.900,309.591 184.364 C 307.930 184.789,307.475 184.772,306.521 184.244 C 302.462 182.003,302.521 182.015,297.831 182.534 L 293.463 183.018 296.232 184.283 C 297.754 184.978,300.170 185.837,301.600 186.191 C 305.191 187.079,310.400 189.191,310.400 189.759 C 310.400 191.180,307.342 191.937,305.954 190.859 C 305.213 190.284,304.017 190.066,300.600 189.881 C 293.589 189.503,291.437 188.519,292.997 186.404 C 294.276 184.671,293.833 183.870,291.104 182.982 C 288.175 182.029,287.529 181.386,287.839 179.733 C 288.135 178.155,288.214 178.173,285.767 179.256 C 284.220 179.940,283.613 180.029,282.739 179.699 C 281.839 179.360,281.525 179.420,280.961 180.043 C 280.043 181.057,277.976 181.011,276.622 179.946 C 274.752 178.475,274.012 179.715,275.240 182.262 C 275.754 183.328,276.180 184.229,276.187 184.264 C 276.194 184.300,276.920 184.463,277.800 184.626 L 279.400 184.924 277.831 183.185 C 276.006 181.161,276.361 180.818,279.217 181.845 C 286.114 184.325,282.588 187.016,274.048 185.789 C 267.406 184.834,267.600 184.900,267.600 183.593 C 267.600 182.833,267.063 181.828,266.000 180.600 C 264.716 179.116,264.400 178.914,264.400 179.576 C 264.400 180.561,264.465 180.553,262.634 179.788 C 261.829 179.452,259.062 178.813,256.485 178.369 C 251.326 177.479,248.812 176.489,247.803 174.948 C 246.342 172.719,248.707 172.193,254.800 173.391 L 257.800 173.981 258.900 172.706 C 260.719 170.596,260.599 170.544,253.300 170.277 C 244.179 169.943,233.240 167.937,229.600 165.930 C 228.526 165.337,228.433 165.213,229.200 165.394 C 229.750 165.524,234.880 165.807,240.600 166.023 C 246.528 166.246,252.634 166.696,254.800 167.070 C 256.890 167.430,259.095 167.693,259.700 167.654 C 263.268 167.425,269.035 167.702,269.455 168.122 C 269.608 168.275,270.517 168.400,271.476 168.400 L 273.218 168.400 272.555 167.388 C 271.631 165.977,271.565 165.984,277.800 166.824 C 280.880 167.239,284.210 167.571,285.200 167.562 L 287.000 167.545 283.800 166.446 C 279.322 164.908,277.295 163.600,279.391 163.600 C 281.669 163.600,281.862 158.011,279.600 157.534 C 275.967 156.768,269.072 155.951,261.600 155.400 C 250.590 154.588,246.404 153.769,240.850 151.340 C 239.171 150.606,237.986 150.400,235.440 150.400 C 231.657 150.400,227.124 149.894,221.200 148.810 C 218.890 148.388,216.307 147.931,215.461 147.795 C 213.966 147.556,213.942 147.527,214.625 146.772 C 215.012 146.345,215.222 145.888,215.091 145.757 C 214.745 145.412,214.000 145.961,214.000 146.562 C 214.000 147.752,212.658 148.373,210.924 147.983 C 210.011 147.778,206.324 147.427,202.732 147.204 C 199.139 146.981,195.236 146.602,194.057 146.362 C 192.508 146.046,191.793 146.047,191.477 146.363 C 190.744 147.096,189.147 146.884,188.922 146.024 C 188.611 144.833,185.372 144.617,177.264 145.249 C 165.310 146.181,158.048 145.988,154.253 144.639 C 151.665 143.718,150.732 143.566,148.996 143.783 C 147.572 143.961,146.450 143.868,145.543 143.497 C 144.642 143.128,143.740 143.052,142.800 143.266 M239.188 145.978 C 239.679 146.895,240.400 147.415,240.400 146.852 C 240.400 146.455,239.304 145.200,238.957 145.200 C 238.855 145.200,238.959 145.550,239.188 145.978 M241.600 147.120 C 241.600 147.770,242.591 148.400,243.613 148.400 C 245.010 148.400,245.346 147.999,244.494 147.352 C 243.736 146.777,241.600 146.605,241.600 147.120 M215.824 153.371 C 216.548 153.904,216.553 153.961,215.899 154.215 C 214.893 154.605,213.200 154.089,213.200 153.392 C 213.200 152.629,214.798 152.617,215.824 153.371 M232.986 154.399 C 234.661 155.009,235.854 155.198,236.986 155.035 C 240.403 154.542,240.478 154.581,242.846 158.068 C 244.639 160.708,243.920 162.392,241.836 160.434 C 241.348 159.975,240.631 159.600,240.242 159.600 C 239.681 159.600,239.585 159.375,239.776 158.500 L 240.016 157.400 236.708 157.375 C 234.511 157.359,231.972 156.990,229.146 156.275 C 226.806 155.684,224.317 155.200,223.616 155.200 C 222.618 155.200,222.370 155.048,222.474 154.500 C 222.665 153.496,225.716 153.322,227.110 154.236 C 228.119 154.897,228.176 154.889,228.746 154.031 C 229.380 153.075,229.341 153.072,232.986 154.399 M251.600 156.813 C 251.600 157.039,251.330 157.329,251.000 157.455 C 248.752 158.318,250.644 159.941,254.295 160.282 C 256.962 160.531,257.450 160.973,255.765 161.613 C 255.029 161.893,254.085 161.838,252.493 161.423 C 250.278 160.844,250.247 160.848,249.326 161.842 C 248.138 163.124,247.600 162.775,247.600 160.724 C 247.600 159.374,247.845 158.864,249.028 157.747 C 250.432 156.424,251.600 155.999,251.600 156.813 M254.796 156.995 C 255.195 157.476,255.172 157.636,254.676 157.826 C 253.914 158.119,252.293 157.297,252.612 156.780 C 252.970 156.201,254.241 156.327,254.796 156.995 M259.000 157.200 C 259.000 157.857,257.174 158.231,256.066 157.801 C 255.469 157.570,255.483 157.482,256.200 156.954 C 257.192 156.224,259.000 156.383,259.000 157.200 M238.796 159.398 C 239.866 159.951,239.935 160.104,239.525 161.005 C 238.962 162.240,238.788 162.239,236.962 161.000 C 236.151 160.450,235.198 159.997,234.844 159.994 C 234.490 159.991,233.930 159.811,233.600 159.594 C 231.698 158.346,236.417 158.168,238.796 159.398 M220.638 159.261 C 220.962 159.786,219.759 160.803,218.824 160.794 C 217.793 160.784,217.157 160.178,217.429 159.468 C 217.728 158.690,220.187 158.531,220.638 159.261 M270.838 160.686 C 272.229 161.508,272.329 162.218,271.100 162.548 C 269.004 163.110,267.096 162.406,268.449 161.570 C 268.752 161.382,269.022 161.043,269.050 160.815 C 269.175 159.776,269.285 159.768,270.838 160.686 M264.731 161.732 C 264.840 162.300,264.661 162.435,263.940 162.332 C 263.422 162.259,262.946 161.874,262.869 161.468 C 262.760 160.900,262.939 160.765,263.660 160.868 C 264.178 160.941,264.654 161.326,264.731 161.732 M291.417 161.973 C 291.272 162.208,290.533 162.400,289.776 162.400 C 287.590 162.400,288.170 163.096,291.100 163.989 C 294.871 165.138,295.414 165.612,294.841 167.253 C 294.022 169.605,295.983 170.148,305.400 170.178 C 312.765 170.201,313.731 170.372,316.077 172.075 C 316.629 172.476,316.899 172.434,317.548 171.847 C 318.456 171.025,319.271 171.181,321.309 172.564 C 322.237 173.194,323.569 173.586,325.440 173.780 C 331.037 174.361,346.661 181.502,350.431 185.202 C 352.266 187.003,355.600 189.121,355.600 188.486 C 355.600 187.590,351.541 184.270,347.690 182.017 C 341.348 178.306,338.130 176.078,336.687 174.400 C 335.571 173.102,335.224 172.930,334.075 173.101 C 332.970 173.265,332.714 173.156,332.526 172.440 C 332.317 171.640,332.267 171.629,331.791 172.280 C 331.366 172.861,331.122 172.900,330.340 172.512 C 329.823 172.256,328.770 171.928,328.000 171.784 C 326.262 171.458,324.800 170.562,324.800 169.823 C 324.800 169.515,324.256 169.144,323.590 168.998 C 322.180 168.688,320.000 166.976,320.000 166.179 C 320.000 165.299,318.625 164.800,316.200 164.800 C 314.961 164.800,313.609 164.619,313.196 164.398 C 312.604 164.081,312.212 164.213,311.338 165.022 C 309.987 166.275,310.382 166.640,313.511 167.031 C 315.596 167.292,318.260 168.757,316.703 168.787 C 315.321 168.813,305.391 166.723,304.011 166.115 C 302.619 165.502,302.613 165.490,303.600 165.224 L 304.600 164.955 303.600 164.683 C 303.050 164.533,302.107 164.408,301.505 164.405 C 300.641 164.401,294.644 162.683,292.142 161.722 C 291.889 161.625,291.562 161.738,291.417 161.973 M320.597 169.054 C 321.010 169.467,321.111 169.849,320.872 170.088 C 320.394 170.566,317.873 169.329,318.211 168.783 C 318.580 168.185,319.875 168.333,320.597 169.054 M338.687 172.566 C 338.043 173.055,338.367 173.346,342.087 175.620 C 344.349 177.003,348.405 179.638,351.100 181.475 C 356.236 184.977,356.723 185.117,354.870 182.560 C 350.597 176.664,341.054 170.770,338.687 172.566 M264.948 173.392 C 264.608 174.276,265.447 174.816,267.015 174.721 C 268.443 174.635,269.323 175.077,268.945 175.689 C 268.785 175.949,268.863 176.009,269.138 175.838 C 270.364 175.081,268.796 173.419,266.404 172.941 C 265.500 172.760,265.148 172.869,264.948 173.392 M250.000 174.732 C 250.000 175.486,251.967 176.138,252.893 175.691 C 253.756 175.275,253.738 175.253,252.524 175.227 C 251.822 175.212,251.136 175.020,251.000 174.800 C 250.701 174.316,250.000 174.269,250.000 174.732 M274.700 174.676 C 274.315 174.776,274.000 175.025,274.000 175.229 C 274.000 175.823,275.455 175.656,276.000 175.000 C 276.532 174.359,276.214 174.280,274.700 174.676 M269.592 182.610 C 269.314 182.945,269.194 183.327,269.326 183.459 C 269.735 183.869,270.800 183.257,270.800 182.613 C 270.800 181.829,270.241 181.828,269.592 182.610 M286.000 185.600 C 286.000 185.820,286.765 186.018,287.700 186.040 C 289.876 186.091,291.297 186.491,291.504 187.111 C 291.706 187.718,287.756 187.792,286.226 187.210 C 285.230 186.831,284.722 185.200,285.600 185.200 C 285.820 185.200,286.000 185.380,286.000 185.600 M334.800 186.000 C 334.800 186.220,335.160 186.400,335.600 186.400 C 336.040 186.400,336.400 186.220,336.400 186.000 C 336.400 185.780,336.040 185.600,335.600 185.600 C 335.160 185.600,334.800 185.780,334.800 186.000 M262.500 188.161 C 264.339 188.209,264.461 188.961,262.728 189.565 C 261.421 190.021,257.962 189.622,255.675 188.752 C 253.845 188.057,255.452 187.518,258.400 187.839 C 259.830 187.995,261.675 188.140,262.500 188.161 M345.399 187.998 C 345.966 188.916,347.293 189.321,346.816 188.430 C 346.572 187.974,346.098 187.600,345.762 187.600 C 345.427 187.600,345.263 187.779,345.399 187.998 M277.478 189.858 C 277.859 190.853,276.837 191.657,275.909 191.092 C 275.466 190.821,274.725 190.384,274.264 190.119 C 273.426 189.640,273.427 189.638,274.376 189.287 C 275.582 188.841,277.202 189.139,277.478 189.858 M282.000 191.320 C 282.000 192.266,282.216 193.256,282.480 193.520 C 282.853 193.893,282.762 194.000,282.071 194.000 C 281.140 194.000,278.615 190.624,279.036 189.941 C 279.844 188.635,282.000 189.637,282.000 191.320 M263.752 191.657 C 264.319 193.267,263.837 194.000,262.213 194.000 C 260.567 194.000,260.366 193.380,261.800 192.727 C 262.859 192.245,263.057 191.806,262.400 191.400 C 261.740 190.992,261.949 190.331,262.692 190.475 C 263.072 190.548,263.550 191.080,263.752 191.657 M252.600 192.454 C 253.754 192.977,253.685 193.003,250.767 193.115 C 247.562 193.238,245.356 192.718,245.830 191.951 C 246.195 191.362,250.976 191.717,252.600 192.454 M368.013 193.611 C 367.997 194.358,369.104 196.000,369.623 196.000 C 370.270 196.000,370.039 195.289,369.013 194.122 C 368.341 193.358,368.021 193.195,368.013 193.611 M186.650 194.000 C 188.211 194.000,188.532 194.964,187.100 195.348 C 185.701 195.723,181.468 195.630,180.803 195.211 C 179.593 194.446,181.850 193.522,184.150 193.841 C 184.783 193.928,185.908 194.000,186.650 194.000 M174.974 194.390 C 176.630 195.020,176.166 195.502,173.619 195.798 C 169.552 196.270,166.803 194.917,170.717 194.370 C 173.587 193.969,173.870 193.970,174.974 194.390 M194.725 194.700 C 194.557 195.583,192.800 195.909,192.800 195.057 C 192.800 194.536,193.354 194.212,194.529 194.046 C 194.710 194.021,194.799 194.315,194.725 194.700 M133.180 197.633 C 134.381 197.891,135.200 198.283,135.200 198.600 C 135.200 199.306,134.366 199.577,133.524 199.145 C 133.117 198.936,132.750 198.957,132.601 199.199 C 132.179 199.882,132.734 200.302,133.791 200.100 C 135.027 199.863,136.541 202.610,135.530 203.252 C 134.302 204.030,132.800 203.428,132.800 202.157 C 132.800 201.549,132.568 201.200,132.164 201.200 C 130.923 201.200,126.641 197.870,127.465 197.546 C 128.568 197.111,130.915 197.147,133.180 197.633 M230.133 198.455 C 231.849 198.800,232.400 199.080,232.400 199.609 C 232.400 200.475,230.536 200.932,230.233 200.141 C 230.118 199.843,229.468 199.600,228.786 199.600 C 227.415 199.600,226.000 198.983,226.000 198.386 C 226.000 197.876,227.361 197.898,230.133 198.455 M118.693 200.346 C 122.525 202.273,122.252 202.209,122.507 201.234 C 122.899 199.734,125.257 198.928,125.982 200.047 C 127.251 202.005,128.399 202.780,131.261 203.611 C 134.348 204.508,135.949 205.384,135.437 205.896 C 134.914 206.419,116.476 206.226,113.000 205.660 C 108.335 204.901,108.000 204.790,108.000 204.006 C 108.000 203.437,107.566 203.263,105.776 203.115 C 104.213 202.985,103.299 202.677,102.698 202.076 C 101.602 200.980,102.080 200.504,103.674 201.105 C 104.956 201.589,105.788 201.427,105.383 200.772 C 105.256 200.568,104.520 200.400,103.747 200.400 C 101.704 200.400,102.000 199.051,104.081 198.877 C 105.377 198.769,105.633 198.903,106.188 199.977 C 106.621 200.815,107.117 201.200,107.761 201.200 C 108.780 201.200,109.777 200.311,109.297 199.830 C 109.134 199.668,109.361 199.264,109.801 198.932 C 111.226 197.858,114.909 198.444,118.693 200.346 M185.774 199.190 C 187.317 199.777,187.008 200.400,185.174 200.400 C 183.466 200.400,182.000 199.839,182.000 199.186 C 182.000 198.685,184.453 198.688,185.774 199.190 M193.823 199.367 C 194.842 200.112,194.436 200.449,192.220 200.699 C 190.813 200.858,190.400 200.774,190.400 200.332 C 190.400 198.884,192.394 198.322,193.823 199.367 M200.038 199.486 C 202.237 200.785,200.597 201.921,197.523 201.228 C 195.566 200.786,195.242 200.527,195.484 199.600 C 195.755 198.563,198.366 198.498,200.038 199.486 M98.724 200.647 C 97.920 201.451,94.618 201.877,94.218 201.229 C 93.706 200.401,94.821 199.644,96.732 199.521 C 98.957 199.377,99.620 199.752,98.724 200.647 M232.984 201.594 C 234.992 202.357,234.652 203.979,232.480 203.994 C 231.086 204.003,229.189 202.893,229.448 202.220 C 229.806 201.286,231.422 201.000,232.984 201.594 M312.135 201.895 C 312.278 202.126,313.111 202.384,313.987 202.467 C 315.958 202.655,315.493 202.062,313.403 201.723 C 312.382 201.557,311.962 201.615,312.135 201.895 M212.873 203.500 C 212.977 204.396,213.173 204.576,213.934 204.469 C 215.366 204.268,216.467 205.505,216.351 207.184 C 216.209 209.237,217.013 210.534,218.236 210.227 C 218.770 210.093,219.700 210.232,220.303 210.535 C 222.211 211.496,223.600 211.695,223.600 211.008 C 223.600 210.105,224.608 210.272,225.367 211.300 C 226.017 212.181,226.026 212.167,225.793 210.600 C 225.631 209.511,225.181 208.681,224.382 208.000 C 223.737 207.450,222.662 206.132,221.994 205.070 C 221.326 204.009,220.649 203.204,220.490 203.283 C 220.330 203.361,219.696 203.678,219.080 203.986 C 218.056 204.499,217.771 204.454,215.771 203.473 C 213.034 202.131,212.716 202.134,212.873 203.500 M329.376 204.088 C 329.375 205.030,329.235 206.089,329.066 206.442 C 328.547 207.527,332.226 208.381,333.002 207.356 C 333.791 206.314,333.785 206.300,332.099 205.397 C 330.988 204.801,330.600 204.338,330.600 203.604 C 330.600 203.036,330.340 202.564,329.989 202.495 C 329.518 202.403,329.378 202.767,329.376 204.088 M176.269 204.541 C 177.905 205.901,178.996 206.403,180.274 206.381 C 181.234 206.364,181.017 206.161,178.800 205.000 C 175.757 203.407,174.669 203.210,176.269 204.541 M322.800 205.400 C 323.074 205.730,323.478 206.000,323.698 206.000 C 323.921 206.000,323.878 205.735,323.600 205.400 C 323.326 205.070,322.922 204.800,322.702 204.800 C 322.479 204.800,322.522 205.065,322.800 205.400 M7.600 206.000 C 7.600 206.220,7.859 206.400,8.176 206.400 C 8.493 206.400,8.864 206.220,9.000 206.000 C 9.136 205.780,8.877 205.600,8.424 205.600 C 7.971 205.600,7.600 205.780,7.600 206.000 M248.413 206.224 C 248.406 206.456,248.664 206.996,248.987 207.424 C 249.310 207.851,249.580 208.009,249.587 207.776 C 249.594 207.544,249.336 207.004,249.013 206.576 C 248.690 206.149,248.420 205.991,248.413 206.224 M337.343 208.796 C 338.412 209.214,341.275 210.558,343.706 211.783 C 347.874 213.883,348.168 213.972,348.863 213.343 C 349.814 212.483,349.792 212.274,348.700 211.795 C 348.201 211.576,347.629 210.820,347.417 210.100 C 346.988 208.641,345.249 208.270,344.025 209.377 C 343.466 209.883,343.093 209.834,340.994 208.979 C 339.677 208.443,337.880 208.011,337.000 208.021 L 335.400 208.037 337.343 208.796 M246.054 210.029 C 245.272 210.343,245.194 210.511,245.603 211.004 C 246.190 211.711,247.906 211.776,249.474 211.151 L 250.600 210.702 249.400 210.169 C 247.990 209.543,247.338 209.516,246.054 210.029 M192.100 211.889 C 190.168 212.129,190.527 212.800,192.587 212.800 C 194.012 212.800,194.328 212.678,194.145 212.200 C 194.018 211.870,193.799 211.629,193.657 211.664 C 193.516 211.699,192.815 211.801,192.100 211.889 M315.737 212.939 C 317.022 213.472,317.879 214.028,317.641 214.175 C 316.644 214.791,309.600 212.799,309.600 211.901 C 309.600 211.255,313.101 211.847,315.737 212.939 M130.919 213.453 C 131.276 213.809,130.541 215.060,129.811 215.340 C 129.108 215.610,128.000 215.271,128.000 214.786 C 128.000 213.763,130.217 212.751,130.919 213.453 M169.311 213.700 C 169.098 213.975,168.812 214.515,168.675 214.900 C 168.537 215.285,168.149 215.600,167.813 215.600 C 166.958 215.600,167.045 216.297,167.936 216.580 C 168.341 216.708,168.911 217.260,169.204 217.807 C 169.877 219.064,170.133 219.052,171.392 217.700 L 172.417 216.600 172.655 217.500 C 173.055 219.010,174.987 218.749,175.044 217.178 C 175.080 216.170,174.940 215.969,174.244 216.023 C 172.290 216.175,171.735 215.450,173.000 214.400 C 173.330 214.126,173.600 213.744,173.600 213.551 C 173.600 213.003,169.747 213.137,169.311 213.700 M226.874 213.900 C 226.976 214.433,227.481 214.630,228.993 214.726 C 232.177 214.927,232.907 215.981,230.618 217.072 C 228.504 218.080,228.402 219.574,230.444 219.594 C 230.799 219.597,233.039 220.246,235.424 221.035 C 239.312 222.323,239.807 222.405,240.224 221.835 C 240.890 220.924,242.400 221.009,242.400 221.957 C 242.400 222.846,243.148 223.200,245.028 223.200 C 246.081 223.200,246.377 223.359,246.332 223.900 C 246.150 226.070,246.354 226.400,247.876 226.400 C 249.263 226.400,249.306 226.364,248.576 225.808 C 247.524 225.005,248.132 224.648,251.609 224.026 C 254.722 223.470,255.742 223.661,257.267 225.088 L 258.334 226.086 260.417 224.952 C 261.563 224.328,262.769 223.409,263.096 222.909 C 264.368 220.968,269.872 222.251,269.405 224.379 C 269.266 225.009,269.323 225.629,269.531 225.758 C 270.056 226.082,270.750 225.150,271.031 223.747 L 271.266 222.570 266.533 221.677 C 263.930 221.186,259.721 220.520,257.180 220.197 C 250.952 219.405,249.187 219.045,245.200 217.752 C 241.551 216.568,236.400 216.167,236.400 217.067 C 236.400 217.768,235.628 217.889,234.137 217.423 C 232.705 216.975,232.523 216.121,233.902 216.319 C 235.878 216.604,234.915 215.641,232.053 214.471 C 228.489 213.013,226.668 212.813,226.874 213.900 M214.576 214.573 C 213.934 215.047,213.891 215.237,214.327 215.673 C 214.845 216.191,216.000 215.259,216.000 214.324 C 216.000 213.836,215.443 213.933,214.576 214.573 M177.537 214.811 C 176.038 215.686,178.058 217.724,179.773 217.066 C 180.243 216.885,180.263 216.622,179.886 215.623 C 179.414 214.371,178.709 214.127,177.537 214.811 M291.600 215.200 C 292.376 215.701,292.800 215.701,292.800 215.200 C 292.800 214.980,292.395 214.803,291.900 214.806 C 291.172 214.811,291.115 214.886,291.600 215.200 M294.800 215.422 C 294.800 216.409,307.031 218.702,307.862 217.871 C 308.132 217.601,304.994 216.838,300.248 216.020 C 295.053 215.124,294.800 215.096,294.800 215.422 M186.876 215.940 C 184.369 216.646,186.964 218.165,189.992 217.763 C 191.544 217.557,191.987 217.346,191.906 216.848 C 191.815 216.295,192.210 216.214,194.600 216.297 C 196.557 216.365,197.159 216.283,196.600 216.025 C 195.694 215.608,188.287 215.543,186.876 215.940 M222.626 217.558 C 222.504 217.755,222.668 218.017,222.989 218.141 C 223.615 218.380,224.148 217.882,223.722 217.456 C 223.361 217.094,222.885 217.139,222.626 217.558 M179.384 218.827 C 178.973 219.491,179.317 219.596,181.004 219.322 C 182.262 219.118,182.413 219.009,181.783 218.762 C 180.638 218.315,179.684 218.340,179.384 218.827 M205.211 218.785 C 204.693 219.112,204.693 219.179,205.211 219.344 C 205.535 219.447,206.639 219.801,207.664 220.129 C 209.483 220.713,209.551 220.704,210.433 219.765 C 211.629 218.492,211.175 218.148,209.168 218.810 C 207.891 219.232,207.366 219.246,206.772 218.875 C 205.870 218.312,205.951 218.317,205.211 218.785 M162.000 219.171 C 162.000 219.652,163.148 220.800,163.629 220.800 C 164.235 220.800,164.056 220.342,163.139 219.547 C 162.163 218.700,162.000 218.647,162.000 219.171 M331.200 218.990 C 331.200 219.306,333.660 220.474,333.874 220.259 C 333.984 220.149,333.527 219.776,332.857 219.429 C 331.588 218.773,331.200 218.670,331.200 218.990 M217.822 221.714 C 216.885 222.424,217.848 224.417,219.109 224.379 C 219.681 224.362,219.645 224.250,218.900 223.730 C 216.085 221.766,220.289 221.419,228.111 222.969 C 234.605 224.256,236.785 224.550,235.959 224.030 C 233.580 222.532,219.172 220.692,217.822 221.714 M291.600 222.282 C 291.600 222.466,292.105 223.244,292.723 224.009 C 293.341 224.774,294.857 226.840,296.093 228.600 C 298.797 232.450,301.705 235.889,303.577 237.451 C 304.953 238.599,304.953 238.598,303.177 236.106 C 302.200 234.735,300.523 232.256,299.452 230.597 C 296.690 226.319,291.600 220.929,291.600 222.282 M274.684 224.400 C 274.916 225.286,275.406 225.438,275.828 224.755 C 275.979 224.511,275.854 224.153,275.551 223.961 C 274.690 223.416,274.458 223.534,274.684 224.400 M224.200 225.600 C 224.336 225.820,224.987 226.000,225.647 226.000 C 226.345 226.000,226.744 225.833,226.600 225.600 C 226.464 225.380,225.813 225.200,225.153 225.200 C 224.455 225.200,224.056 225.367,224.200 225.600 M253.776 227.413 C 254.627 228.056,256.400 228.212,256.400 227.643 C 256.400 227.163,255.372 226.797,254.067 226.813 C 253.042 226.825,253.031 226.849,253.776 227.413 M181.200 227.790 C 181.200 227.894,181.785 228.279,182.500 228.644 L 183.800 229.309 183.038 228.455 C 182.364 227.698,181.200 227.277,181.200 227.790 M194.893 229.758 C 196.180 230.925,198.231 231.299,202.400 231.125 L 205.400 231.000 203.000 230.029 C 201.299 229.341,199.610 229.016,197.200 228.913 L 193.800 228.768 194.893 229.758 M213.867 230.267 C 213.317 230.817,213.656 231.130,215.700 231.956 C 219.646 233.553,226.692 234.929,230.508 234.849 C 232.438 234.809,236.128 235.050,238.708 235.385 C 241.289 235.721,244.300 235.978,245.400 235.957 C 246.500 235.936,249.740 236.415,252.600 237.020 C 258.495 238.268,266.655 238.614,268.291 237.687 C 269.057 237.252,269.295 237.295,269.991 237.991 C 270.857 238.857,271.804 239.040,272.189 238.417 C 272.540 237.850,270.528 236.944,267.666 236.381 C 266.277 236.108,264.566 235.494,263.862 235.016 C 262.730 234.248,262.446 234.206,261.391 234.656 C 259.559 235.437,257.260 235.297,253.570 234.178 C 250.153 233.141,247.683 233.101,246.522 234.065 C 245.972 234.521,245.566 234.468,241.823 233.450 C 240.516 233.095,235.386 232.439,230.423 231.992 C 225.460 231.546,219.960 230.919,218.200 230.598 C 214.515 229.927,214.228 229.905,213.867 230.267 M320.800 230.406 C 320.800 230.849,323.154 232.403,323.800 232.387 C 324.312 232.374,321.720 230.000,321.194 230.000 C 320.977 230.000,320.800 230.183,320.800 230.406 M276.820 238.591 C 277.145 238.916,278.038 239.300,278.805 239.444 L 280.200 239.706 279.317 238.853 C 278.831 238.384,277.937 238.000,277.331 238.000 C 276.358 238.000,276.298 238.070,276.820 238.591 M395.828 238.755 C 395.708 238.950,396.012 239.217,396.504 239.349 C 397.927 239.730,398.400 239.643,398.400 239.000 C 398.400 238.340,396.213 238.132,395.828 238.755 M382.786 249.817 C 382.425 250.251,382.399 250.559,382.698 250.858 C 383.194 251.354,385.240 250.509,385.504 249.700 C 385.743 248.965,383.410 249.065,382.786 249.817 M282.562 253.542 C 282.981 254.014,283.487 254.400,283.686 254.400 C 284.249 254.400,283.650 253.654,282.678 253.144 C 281.806 252.687,281.805 252.690,282.562 253.542 M300.000 257.620 C 300.000 258.181,303.181 259.582,303.862 259.321 C 304.788 258.966,304.458 258.510,302.792 257.843 C 300.931 257.099,300.000 257.024,300.000 257.620 M224.589 264.418 C 224.073 265.253,225.289 266.166,225.866 265.377 C 226.146 264.995,226.280 264.529,226.164 264.341 C 225.871 263.867,224.900 263.914,224.589 264.418 " stroke="none" fill="#8c0606" fill-rule="evenodd"/></g></svg>